<svg t="1634817998782" class="icon" viewBox="0 0 1024 1024" version="1.1" xmlns="http://www.w3.org/2000/svg" p-id="14998" width="200" height="200"><path d="M341.376 341.333333A42.666667 42.666667 0 1 1 341.333333 256 42.666667 42.666667 0 0 1 341.333333 341.333333zM618.666667 384h21.333333a128 128 0 0 1 128 128v196.266667a17.066667 17.066667 0 0 1-17.066667 17.066666h-51.2a17.066667 17.066667 0 0 1-17.066666-17.066666V512a42.666667 42.666667 0 0 0-42.666667-42.666667h-21.333333a64 64 0 0 0-64 64v174.933334a17.066667 17.066667 0 0 1-17.066667 17.066666h-51.2a17.066667 17.066667 0 0 1-17.066667-17.066666V401.066667c0-9.386667 7.68-17.066667 17.066667-17.066667h53.888c7.936 0 14.378667 6.4 14.378667 14.378667A148.736 148.736 0 0 1 618.666667 384zM298.666667 708.266667V401.066667c0-9.386667 7.68-17.066667 17.066666-17.066667h51.2c9.386667 0 17.066667 7.68 17.066667 17.066667v307.2a17.066667 17.066667 0 0 1-17.066667 17.066666H315.733333a17.066667 17.066667 0 0 1-17.066666-17.066666zM341.333333 170.666667a170.666667 170.666667 0 0 0-170.666666 170.666666v341.333334a170.666667 170.666667 0 0 0 170.666666 170.666666h341.333334a170.666667 170.666667 0 0 0 170.666666-170.666666V341.333333a170.666667 170.666667 0 0 0-170.666666-170.666666H341.333333z m0-85.333334h341.333334a256 256 0 0 1 256 256v341.333334a256 256 0 0 1-256 256H341.333333a256 256 0 0 1-256-256V341.333333a256 256 0 0 1 256-256z" p-id="14999"></path></svg>