<svg t="1634817234411" class="icon" viewBox="0 0 1024 1024" version="1.1" xmlns="http://www.w3.org/2000/svg" p-id="17377" width="200" height="200"><path d="M683.072 672.64A234.026667 234.026667 0 0 1 512 746.666667c-129.6 0-234.666667-105.066667-234.666667-234.666667s105.066667-234.666667 234.666667-234.666667c57.216 0 109.653333 20.48 150.4 54.528A42.666667 42.666667 0 0 1 746.666667 341.333333v256c0 34.389333 32.576 64 74.666666 64s74.666667-29.610667 74.666667-64v-85.333333c0-212.074667-171.925333-384-384-384S128 299.925333 128 512s171.925333 384 384 384a42.666667 42.666667 0 1 1 0 85.333333C252.8 981.333333 42.666667 771.2 42.666667 512S252.8 42.666667 512 42.666667s469.333333 210.133333 469.333333 469.333333v85.333333c0 83.413333-72.490667 149.333333-160 149.333334-58.56 0-110.378667-29.504-138.261333-74.026667zM512 661.333333a149.333333 149.333333 0 1 0 0-298.666666 149.333333 149.333333 0 0 0 0 298.666666z" fill="#000000" p-id="17378"></path></svg>