<svg t="1634813318330" class="icon" viewBox="0 0 1024 1024" version="1.1" xmlns="http://www.w3.org/2000/svg" p-id="2438" width="200" height="200"><path d="M947.7 455.5v0.1c-4.3 13.1-16.1 22.3-29.9 23.4-13.8 1.1-26.9-6.2-33.2-18.4-4.1-8-4.9-17.3-2.1-25.9h-0.1c18.6-56.8 5.2-119.1-35.2-163.5-40.2-44.3-101.3-64-160.2-51.5-8.9 1.9-18.2 0.2-25.8-4.7-7.6-4.9-13-12.6-14.9-21.4-3.9-18.3 7.9-36.4 26.4-40.3 79.9-16.9 166.6 7.8 225.3 72.4 58.9 64.5 74.7 152.5 49.7 229.8zM710.5 328.4c-7.6 1.6-15.6 0.2-22.2-4.1-6.6-4.2-11.1-10.8-12.8-18.4-3.4-15.8 6.7-31.3 22.7-34.7 40.3-8.6 82.2 4.8 109.8 35.2 28.7 31.5 36.3 74.4 24.1 112-2.4 7.4-7.6 13.5-14.6 17s-15.1 4.2-22.5 1.8c-15.5-5-24-21.5-18.9-36.8h-0.1c6.2-19 1.8-39.9-11.7-54.8-13.7-14.8-34.1-21.4-53.8-17.2z m26.2 165.9c51.3 15.8 108.4 54 108.4 121.2 0 111.4-161.8 251.7-405 251.7-185.5 0-375.2-89.3-375.2-236.1 0-76.8 49-165.5 133.3-249.3 112.6-111.8 244-162.7 293.4-113.6 21.8 21.6 23.9 59.1 9.9 103.8-7.3 22.5 21.3 10 21.3 10.1 91-37.9 170.5-40.1 199.5 1.1 15.4 21.9 14 52.7-0.3 88.4-6.6 16.4 2 18.9 14.7 22.7zM440.5 814.6c148-14.5 260.3-104.5 250.7-201.1-9.6-96.4-137.4-162.9-285.4-148.4-148 14.5-260.3 104.6-250.7 201 9.6 96.6 137.4 163 285.4 148.5z m14.8-275.1c72.9 18.7 110.1 87 80.3 153.3-30.2 67.9-117.1 104-190.8 80.4-71.2-22.8-101.3-92.6-70.1-155.5 30.6-61.6 110.2-96.4 180.6-78.2zM401.5 700c14.1-22.9 6.7-49.1-16.5-58.9-22.9-9.5-52.6 0.3-66.7 22.3-14.3 22.1-7.6 48.5 15.2 58.7 23.1 10.5 53.7 0.5 68-22.1z m0 0" fill="#000000" p-id="2439"></path></svg>