<?xml version="1.0" standalone="no"?>
<!DOCTYPE svg PUBLIC "-//W3C//DTD SVG 20010904//EN"
 "http://www.w3.org/TR/2001/REC-SVG-20010904/DTD/svg10.dtd">
<svg version="1.0" xmlns="http://www.w3.org/2000/svg"
 width="120.000000pt" height="120.000000pt" viewBox="0 0 120.000000 120.000000"
 preserveAspectRatio="xMidYMid meet">
<metadata>
Created by potrace 1.11, written by Peter Selinger 2001-2013
</metadata>
<g transform="translate(0.000000,120.000000) scale(0.100000,-0.100000)"
fill="#000000" stroke="none">
<path d="M1099 1156 c-2 -3 -16 -7 -29 -9 -79 -15 -199 -51 -228 -69 -36 -22
-82 -77 -82 -99 0 -11 -32 -14 -178 -15 -97 0 -193 -3 -212 -7 -19 -4 -48 -9
-64 -12 -73 -14 -134 -57 -137 -94 -5 -65 3 -250 16 -351 2 -19 6 -57 9 -85
25 -245 83 -346 221 -388 45 -13 300 -16 355 -4 121 28 197 127 216 285 3 20
6 44 9 52 2 8 7 51 10 95 4 44 9 94 11 110 2 17 6 91 9 166 l5 136 -27 27
c-15 16 -51 34 -85 43 -32 9 -58 20 -58 25 0 17 65 47 149 68 159 39 162 40
170 63 13 35 -6 63 -43 65 -18 1 -34 0 -37 -2z"/>
</g>
</svg>
