<svg t="1636292764027" class="icon" viewBox="0 0 1024 1024" version="1.1" xmlns="http://www.w3.org/2000/svg" p-id="2398" width="200" height="200"><path d="M121.429333 271.36a39.594667 39.594667 0 0 0-12.928-33.450667l-95.573333-115.2v-17.194666H309.76l229.461333 503.253333 201.728-503.253333H1024v17.194666l-81.792 78.378667a23.936 23.936 0 0 0-9.088 22.954667v576a23.936 23.936 0 0 0 9.088 22.912l79.786667 78.378666v17.194667h-401.493334v-17.194667l82.645334-80.298666c8.106667-8.106667 8.106667-10.496 8.106666-22.954667V332.544l-229.973333 584.021333h-31.018667L182.528 332.544v391.424c-2.218667 16.469333 3.242667 33.024 14.805333 44.928l107.52 130.56v17.152H0v-17.194667l107.52-130.56c11.52-11.861333 16.64-28.586667 13.909333-44.885333V271.36z" fill="" p-id="2399"></path></svg>