<svg t="1634816365928" class="icon" viewBox="0 0 1024 1024" version="1.1" xmlns="http://www.w3.org/2000/svg" p-id="8551" width="200" height="200"><path d="M355.68816 928c-86.4 0-212.8-16-320-92.8-32-22.4-44.8-65.6-28.8-102.4 14.4-36.8 54.4-57.6 94.4-49.6 0 0 16 3.2 40 1.6-16-22.4-30.4-48-40-75.2-3.2-9.6-4.8-17.6-4.8-27.2-40-46.4-60.8-104-60.8-168 0-14.4 3.2-28.8 11.2-40C32.48816 320 27.68816 248 74.08816 171.2 88.48816 148.8 112.48816 132.8 139.68816 129.6h3.2c28.8-1.6 54.4 9.6 72 28.8 11.2 11.2 97.6 102.4 208 132.8C448.48816 179.2 550.88816 96 674.08816 96c54.4 0 107.2 16 148.8 46.4 11.2-3.2 25.6-8 38.4-17.6 25.6-17.6 59.2-20.8 86.4-6.4 27.2 12.8 46.4 38.4 49.6 68.8V201.6c22.4 22.4 30.4 54.4 20.8 83.2-8 27.2-33.6 60.8-86.4 108.8-3.2 118.4-59.2 435.2-457.6 524.8-3.2 0-51.2 9.6-118.4 9.6zM86.88816 761.6c-3.2 0-4.8 1.6-4.8 1.6v1.6c-1.6 1.6-1.6 3.2 0 4.8 89.6 65.6 198.4 78.4 273.6 78.4 59.2 0 100.8-8 102.4-8 361.6-81.6 396.8-377.6 398.4-467.2 0-11.2 4.8-22.4 12.8-28.8 67.2-59.2 75.2-80 75.2-81.6 1.6-3.2-1.6-6.4-3.2-6.4l-1.6-1.6c-17.6-8-27.2-28.8-20.8-48 1.6-4.8 1.6-8 1.6-11.2 0-1.6-1.6-3.2-3.2-4.8-1.6 0-1.6-1.6-3.2-1.6s-3.2 0-6.4 1.6c-35.2 24-72 32-89.6 33.6-11.2 1.6-20.8-1.6-28.8-8-30.4-25.6-72-38.4-113.6-38.4-97.6 0-176 72-179.2 166.4 0 11.2-4.8 22.4-14.4 28.8-8 8-19.2 11.2-30.4 9.6-152-20.8-272-142.4-296-166.4l-1.6-1.6c-1.6-1.6-4.8-1.6-6.4-1.6-3.2 0-4.8 3.2-6.4 4.8-28.8 48-32 99.2-11.2 150.4 6.4 16 3.2 35.2-11.2 46.4l-3.2 3.2c0 51.2 16 92.8 51.2 124.8 11.2 11.2 14.4 25.6 11.2 40v4.8c12.8 40 38.4 72 73.6 92.8 12.8 8 20.8 22.4 19.2 38.4-1.6 16-12.8 28.8-27.2 33.6-73.6 24-152 12.8-155.2 11.2 0-1.6-1.6-1.6-1.6-1.6z m849.6-510.4z" p-id="8552" fill="#000000"></path></svg>