<svg t="1634817733282" class="icon" viewBox="0 0 1024 1024" version="1.1" xmlns="http://www.w3.org/2000/svg" p-id="19913" width="200" height="200"><path d="M104.746667 825.088C173.994667 870.186667 275.797333 896 384 896c303.232 0 464.213333-239.104 469.205333-479.104l79.829334-139.690667a42.666667 42.666667 0 0 0-58.837334-57.813333c-13.184 7.850667-43.306667 11.306667-67.456 14.08-6.314667 0.768-12.544 1.450667-18.56 2.261333a200.874667 200.874667 0 0 0-128.981333-47.232 200.448 200.448 0 0 0-199.765333 189.056c-98.816-18.944-195.114667-73.898667-255.658667-148.48a42.368 42.368 0 0 0-39.04-15.317333 42.410667 42.410667 0 0 0-33.28 25.472c-47.104 109.909333-71.253333 338.773333 148.48 460.885333-29.610667 35.754667-66.048 43.776-114.389333 43.776-7.509333 0-14.976 0.896-22.357334 2.005334-3.242667 0.469333-6.485333 1.066667-10.112 1.066666h-0.085333a43.008 43.008 0 0 0-45.141333 27.818667 42.666667 42.666667 0 0 0 16.896 50.304zM191.445333 338.517333c86.485333 75.562667 204.544 125.098667 318.421334 130.773334 13.056 0.469333 26.325333-5.034667 34.901333-15.317334a42.666667 42.666667 0 0 0 8.704-37.162666 165.802667 165.802667 0 0 0-5.461333-17.536 149.930667 149.930667 0 0 1-3.541334-10.624 114.901333 114.901333 0 0 1 114.688-114.858667c31.573333 0 62.122667 13.312 83.84 36.437333a42.368 42.368 0 0 0 39.338667 12.714667c8.533333-1.664 18.346667-2.858667 28.586667-4.096l-37.333334 65.322667A43.221333 43.221333 0 0 0 768 405.333333c0 162.901333-102.229333 405.333333-384 405.333334-33.408 0-65.877333-2.730667-96.341333-7.978667 34.005333-18.56 66.133333-49.536 91.818666-100.949333a42.624 42.624 0 0 0-21.376-58.282667C180.778667 567.466667 176.256 422.954667 191.445333 338.517333z" fill="#000000" p-id="19914"></path></svg>